<svg xmlns="http://www.w3.org/2000/svg" viewBox="0 0 600 479.588"><path fill="#EF7D00" d="M120.41 0L0 479.588h479.588L600 0H120.41"/><path fill="#FFF" d="M587.233 51.08h-54.32l-18.154 64.484h-66.44l-21.672 68.514h68.823l-20.42 72.54h60.58L587.232 51.08M275.39 431.94h-46.13l-18.255-113.727h37.51l9.425 86.032h.4l54.16-86.032h40.316L275.39 431.94M201.105 345.28c-11.805-4.144-24.937-4.003-36.772-4.003-37.505 0-51.297 19.783-49.53 41.22 1.7 20.583 19.804 25.802 39.24 26.036 13.437.16 20.213 0 31.067-2.69l-6.625 24.98c-9.028 2.445-17.624 3.813-30.26 3.813-45.128 0-71-21.668-71-52.958 0-37.795 32.71-64.28 85.242-65.59 28.914-.72 45.22 4.473 45.22 4.473l-6.582 24.72zM357.942 318.213h37.3c30.69 0 61.582 2.606 61.582 31.28 0 28.354-28.486 42.69-62.178 42.69H375.59l-10.425 39.756h-37.31l30.087-113.727zm23.27 52.464h10.02c14.847 0 28.28-4.242 28.28-17.763 0-10.913-9.22-13.195-19.25-13.195h-11.035l-8.016 30.957z"/></svg>