<svg xmlns="http://www.w3.org/2000/svg" viewBox="0 0 332.79 284.31"><defs><style>.cls-1{fill:#003c69;}.cls-2{fill:#ff9b00;}</style></defs><g id="Bildzeichen"><path class="cls-1" d="M57.29,207.35V167.21L40.15,207.35H31L14,167.58v39.77H.57V142.16H15.38l20.21,47,20.21-47H70.7l-.09,65.19Z"/><path class="cls-1" d="M81.88,147.37a7.31,7.31,0,0,1,7.17-7.26,7.27,7.27,0,1,1,0,14.53A7.26,7.26,0,0,1,81.88,147.37Zm13.88,13v46.94H82.53V160.41Z"/><path class="cls-1" d="M142.6,172H124.07v19.93c0,3,1.4,4.47,3.91,4.47a5.34,5.34,0,0,0,4-1.58l5.21,9.5c-1.49,1.68-5.31,4.38-12.29,4.38-7.45,0-14.07-4.84-14.07-14.72V172H103V160.41h7.82v-12.2h13.23v12.2H142.6v-12.2h13.23v12.2H167V172H155.83v19.93c0,3,1.4,4.47,3.91,4.47a5.34,5.34,0,0,0,4-1.58l5.21,9.5c-1.49,1.68-5.31,4.38-12.29,4.38-7.45,0-14.07-4.84-14.07-14.72Z"/><path class="cls-1" d="M197.18,197.85c6.15,0,9.22-3.72,10.15-6.14l11,3.26c-2.88,7.82-9.59,13.69-21.14,13.69-13,0-24-9.87-24-24.78,0-14.53,10.62-24.77,23.94-24.77,13.88,0,22.26,10.15,22.26,24.4V188H185.63A11.49,11.49,0,0,0,197.18,197.85Zm0-28.22A11.12,11.12,0,0,0,185.72,179h22.17A10.31,10.31,0,0,0,197.18,169.63Z"/><path class="cls-1" d="M110.94,60c19.28,0,30.92,13.22,30.92,32.59,0,20.49-14.16,32.6-31,32.6H87.1V60Zm17.51,32.5c0-10.9-4-20.4-18.72-20.4h-9.22v41h10.06C124,113,128.45,102.52,128.45,92.46Z"/><path class="cls-1" d="M150.71,65.17a7.31,7.31,0,0,1,7.17-7.26,7.27,7.27,0,1,1,0,14.53A7.26,7.26,0,0,1,150.71,65.17Zm13.88,13v46.94H151.36V78.21Z"/><path class="cls-1" d="M197.18,115.65c6.15,0,9.22-3.72,10.15-6.15l11,3.26c-2.89,7.83-9.6,13.7-21.15,13.7-13,0-24-9.88-24-24.78,0-14.53,10.62-24.77,23.94-24.77,13.88,0,22.26,10.15,22.26,24.4v4.47H185.63A11.49,11.49,0,0,0,197.18,115.65Zm0-28.22a11.1,11.1,0,0,0-11.45,9.32h22.16A10.31,10.31,0,0,0,197.18,87.43Z"/><path class="cls-2" d="M247.69,256.71l30.4,27.18a212.61,212.61,0,0,0,0-283.46l-30.4,27.18a177.18,177.18,0,0,1,0,229.1Z"/></g></svg>